<svg width="35" height="26" viewBox="0 0 35 26" fill="none" xmlns="http://www.w3.org/2000/svg">
<path d="M29.6144 2.16076C27.3977 1.15352 24.9976 0.422464 22.4976 7.47275e-05C22.4756 -0.000608574 22.4538 0.00340101 22.4337 0.0118216C22.4135 0.0202423 22.3955 0.0328694 22.3809 0.0488123C22.0809 0.584922 21.7309 1.28349 21.4975 1.8196C18.8458 1.4297 16.1491 1.4297 13.4973 1.8196C13.264 1.26724 12.914 0.584922 12.5973 0.0488123C12.5806 0.0163208 12.5306 7.47275e-05 12.4806 7.47275e-05C9.98055 0.422464 7.59715 1.15352 5.36375 2.16076C5.34709 2.16076 5.33042 2.177 5.31375 2.19325C0.780295 8.80527 -0.469739 15.2386 0.146944 21.6069C0.146944 21.6394 0.163611 21.6719 0.196946 21.6881C3.19703 23.8326 6.08044 25.1322 8.93052 25.9933C8.98052 26.0095 9.03052 25.9933 9.04719 25.9608C9.71387 25.0673 10.3139 24.125 10.8306 23.134C10.8639 23.069 10.8306 23.0041 10.7639 22.9878C9.81388 22.6304 8.91385 22.208 8.03049 21.7206C7.96383 21.6881 7.96383 21.5907 8.01383 21.5419C8.19717 21.412 8.3805 21.2658 8.56384 21.1358C8.59718 21.1033 8.64718 21.1033 8.68051 21.1195C14.414 23.6701 20.5975 23.6701 26.2643 21.1195C26.2977 21.1033 26.3477 21.1033 26.381 21.1358C26.5643 21.282 26.7477 21.412 26.931 21.5582C26.9977 21.6069 26.9977 21.7044 26.9143 21.7369C26.0477 22.2405 25.131 22.6466 24.1809 23.0041C24.1143 23.0203 24.0976 23.1015 24.1143 23.1503C24.6476 24.1413 25.2476 25.0835 25.8977 25.977C25.9477 25.9933 25.9977 26.0095 26.0477 25.9933C28.9144 25.1322 31.7978 23.8326 34.7979 21.6881C34.8312 21.6719 34.8479 21.6394 34.8479 21.6069C35.5812 14.2476 33.6312 7.86302 29.6811 2.19325C29.6644 2.177 29.6478 2.16076 29.6144 2.16076ZM11.6973 17.7242C9.98055 17.7242 8.54718 16.1808 8.54718 14.2801C8.54718 12.3793 9.94721 10.836 11.6973 10.836C13.464 10.836 14.864 12.3956 14.8473 14.2801C14.8473 16.1808 13.4473 17.7242 11.6973 17.7242ZM23.3142 17.7242C21.5975 17.7242 20.1642 16.1808 20.1642 14.2801C20.1642 12.3793 21.5642 10.836 23.3142 10.836C25.081 10.836 26.481 12.3956 26.4643 14.2801C26.4643 16.1808 25.081 17.7242 23.3142 17.7242Z" fill="#654A20"/>
</svg>
