<svg width="23" height="22" viewBox="0 0 23 22" fill="none" xmlns="http://www.w3.org/2000/svg">
<path d="M4.57384 10.4746C4.57382 10.3518 4.59808 10.2301 4.64521 10.1167C4.69234 10.0032 4.76143 9.90016 4.8485 9.81348C4.93557 9.7268 5.03891 9.65818 5.15258 9.61156C5.26625 9.56493 5.38801 9.54123 5.51087 9.5418L7.06435 9.54689C7.31205 9.54689 7.54961 9.64529 7.72476 9.82044C7.89991 9.99559 7.9983 10.2331 7.9983 10.4808V16.3551C8.1733 16.3033 8.39774 16.248 8.64361 16.1903C8.81433 16.1501 8.96647 16.0535 9.07537 15.916C9.18427 15.7785 9.24355 15.6083 9.2436 15.4329V8.14638C9.24359 8.02371 9.26774 7.90224 9.31467 7.78891C9.36161 7.67557 9.4304 7.57259 9.51713 7.48585C9.60387 7.3991 9.70684 7.33029 9.82016 7.28333C9.93349 7.23638 10.055 7.21221 10.1776 7.2122H11.7342C11.9819 7.21224 12.2194 7.31065 12.3945 7.48579C12.5697 7.66094 12.6681 7.89847 12.6681 8.14615V14.9093C12.6681 14.9093 13.0577 14.7515 13.4374 14.5913C13.5784 14.5316 13.6988 14.4318 13.7834 14.3042C13.868 14.1766 13.9132 14.0269 13.9133 13.8738V5.81109C13.9133 5.68844 13.9375 5.567 13.9844 5.45369C14.0313 5.34037 14.1001 5.23742 14.1868 5.15069C14.2736 5.06396 14.3765 4.99517 14.4898 4.94823C14.6031 4.9013 14.7246 4.87714 14.8472 4.87714H16.4038C16.6515 4.87714 16.8891 4.97553 17.0642 5.15068C17.2394 5.32583 17.3378 5.56338 17.3378 5.81109V12.4503C18.6873 11.4723 20.055 10.296 21.1404 8.88151C21.2978 8.67619 21.402 8.43509 21.4437 8.17971C21.4853 7.92433 21.4631 7.66262 21.379 7.41792C20.6446 5.27772 19.2671 3.41659 17.4348 2.089C15.6025 0.761412 13.4049 0.0321743 11.1424 0.000997241C5.04153 -0.0809585 -0.000546521 4.89924 5.27901e-05 11.0009C-0.00593756 12.9317 0.497987 14.8298 1.46087 16.5033C1.59366 16.7322 1.78902 16.9185 2.02399 17.0402C2.25896 17.1619 2.52379 17.2141 2.78737 17.1905C3.08186 17.1646 3.44849 17.1279 3.88434 17.0768C4.07404 17.0552 4.24918 16.9646 4.3764 16.8222C4.50362 16.6798 4.57402 16.4956 4.57422 16.3047V10.4746" fill="#654A20"/>
<path d="M4.54011 19.8957C6.18087 21.0893 8.11984 21.8058 10.1425 21.9658C12.1652 22.1258 14.1927 21.7232 16.0007 20.8025C17.8088 19.8818 19.3269 18.4788 20.3871 16.7488C21.4473 15.0189 22.0082 13.0294 22.0079 11.0004C22.0079 10.7471 21.9962 10.4966 21.9792 10.2476C17.9607 16.2407 10.5409 19.0424 4.54004 19.8959" fill="#654A20"/>
</svg>
