<svg width="26" height="26" viewBox="0 0 26 26" fill="none" xmlns="http://www.w3.org/2000/svg">
<path d="M12.9115 2.15186C10.7834 2.15186 8.70316 2.7829 6.93375 3.96518C5.16434 5.14746 3.78526 6.82788 2.97089 8.79394C2.15652 10.76 1.94344 12.9234 2.3586 15.0106C2.77377 17.0977 3.79852 19.0149 5.30328 20.5197C6.80804 22.0244 8.72522 23.0492 10.8124 23.4643C12.8995 23.8795 15.0629 23.6664 17.029 22.8521C18.9951 22.0377 20.6755 20.6586 21.8578 18.8892C23.04 17.1198 23.6711 15.0395 23.6711 12.9115C23.6711 11.4985 23.3928 10.0994 22.8521 8.79394C22.3113 7.48853 21.5188 6.3024 20.5197 5.30327C19.5205 4.30415 18.3344 3.5116 17.029 2.97088C15.7236 2.43016 14.3244 2.15186 12.9115 2.15186ZM13.9874 17.2153C13.9874 17.5007 13.8741 17.7744 13.6723 17.9761C13.4705 18.1779 13.1968 18.2913 12.9115 18.2913C12.6261 18.2913 12.3524 18.1779 12.1507 17.9761C11.9489 17.7744 11.8355 17.5007 11.8355 17.2153V11.8355C11.8355 11.5501 11.9489 11.2765 12.1507 11.0747C12.3524 10.8729 12.6261 10.7595 12.9115 10.7595C13.1968 10.7595 13.4705 10.8729 13.6723 11.0747C13.8741 11.2765 13.9874 11.5501 13.9874 11.8355V17.2153ZM12.9115 9.68359C12.6987 9.68359 12.4906 9.62048 12.3137 9.50225C12.1368 9.38402 11.9989 9.21598 11.9174 9.01938C11.836 8.82277 11.8147 8.60643 11.8562 8.39771C11.8977 8.189 12.0002 7.99728 12.1507 7.8468C12.3011 7.69633 12.4928 7.59385 12.7016 7.55234C12.9103 7.51082 13.1266 7.53213 13.3232 7.61356C13.5198 7.695 13.6879 7.83291 13.8061 8.00985C13.9243 8.18679 13.9874 8.39482 13.9874 8.60762C13.9874 8.89299 13.8741 9.16666 13.6723 9.36844C13.4705 9.57022 13.1968 9.68359 12.9115 9.68359Z" fill="#654A20"/>
</svg>
