<svg width="27" height="26" viewBox="0 0 27 26" fill="none" xmlns="http://www.w3.org/2000/svg">
<path d="M13.5104 0.219727C6.55188 0.219727 0.909668 5.86194 0.909668 12.8205C0.909668 19.779 6.55188 25.4212 13.5104 25.4212C20.469 25.4212 26.1112 19.779 26.1112 12.8205C26.1112 5.86194 20.469 0.219727 13.5104 0.219727ZM18.9107 13.4955C18.9107 13.6193 18.8095 13.7205 18.6857 13.7205H14.4105V17.9958C14.4105 18.1195 14.3092 18.2208 14.1855 18.2208H12.8354C12.7116 18.2208 12.6104 18.1195 12.6104 17.9958V13.7205H8.33511C8.21135 13.7205 8.1101 13.6193 8.1101 13.4955V12.1454C8.1101 12.0217 8.21135 11.9204 8.33511 11.9204H12.6104V7.64517C12.6104 7.52141 12.7116 7.42016 12.8354 7.42016H14.1855C14.3092 7.42016 14.4105 7.52141 14.4105 7.64517V11.9204H18.6857C18.8095 11.9204 18.9107 12.0217 18.9107 12.1454V13.4955Z" fill="#654A20"/>
</svg>
