<svg width="32" height="26" viewBox="0 0 32 26" fill="none" xmlns="http://www.w3.org/2000/svg">
<path d="M32 3.05882C30.8222 3.59412 29.5526 3.94588 28.2371 4.11412C29.5832 3.30353 30.6233 2.01882 31.1128 0.474118C29.8432 1.23882 28.4359 1.77412 26.9522 2.08C25.7438 0.764706 24.0459 0 22.1185 0C18.5239 0 15.587 2.93647 15.587 6.56118C15.587 7.08118 15.6482 7.58588 15.7553 8.06C10.3098 7.78471 5.4608 5.16941 2.23327 1.20824C1.6673 2.17176 1.34608 3.30353 1.34608 4.49647C1.34608 6.77529 2.49331 8.79412 4.26769 9.94118C3.18164 9.94118 2.17208 9.63529 1.2849 9.17647V9.22235C1.2849 12.4035 3.54876 15.0647 6.54685 15.6612C5.58429 15.9246 4.57376 15.9612 3.59465 15.7682C4.01011 17.072 4.82377 18.2129 5.92125 19.0304C7.01873 19.8479 8.34485 20.3009 9.71319 20.3259C7.3937 22.1618 4.51854 23.1542 1.56023 23.14C1.04015 23.14 0.520077 23.1094 0 23.0482C2.90631 24.9141 6.36329 26 10.065 26C22.1185 26 28.7419 15.9976 28.7419 7.32588C28.7419 7.03529 28.7419 6.76 28.7266 6.46941C30.0115 5.55176 31.1128 4.38941 32 3.05882Z" fill="#654A20"/>
</svg>
